<svg width="48" height="48" viewBox="0 0 48 48" fill="none" xmlns="http://www.w3.org/2000/svg">
<rect width="48" height="48" rx="8" fill="#809400"/>
<g clip-path="url(#clip0_3493_8371)">
<path fill-rule="evenodd" clip-rule="evenodd" d="M15.9072 38.8146L21.1078 40.1903V38.3913L21.5323 37.968H24.504V40.0844V41.5659H21.3201L17.3931 39.8728L15.9072 38.8146Z" fill="#CDBDB2"/>
<path fill-rule="evenodd" clip-rule="evenodd" d="M32.8877 38.8146L27.7934 40.1903V38.3913L27.3688 37.968H24.3971V40.0844V41.5659H27.5811L31.5079 39.8728L32.8877 38.8146Z" fill="#CDBDB2"/>
<path fill-rule="evenodd" clip-rule="evenodd" d="M21.532 34.8993L21.1074 38.3913L21.638 37.968H27.1569L27.7936 38.3913L27.3691 34.8993L26.5201 34.3701L22.2748 34.476L21.532 34.8993Z" fill="#393939"/>
<path fill-rule="evenodd" clip-rule="evenodd" d="M18.666 11.3015L21.2132 17.2274L22.3807 34.4762H26.5198L27.7934 17.2274L30.1283 11.3015H18.666Z" fill="#F89C35"/>
<path fill-rule="evenodd" clip-rule="evenodd" d="M7.52248 24.3174L4.55078 32.8888L11.98 32.4655H16.7559V28.7619L16.5436 21.1428L15.4823 21.9894L7.52248 24.3174Z" fill="#F89D35"/>
<path fill-rule="evenodd" clip-rule="evenodd" d="M13.1475 25.2698L21.8503 25.4814L20.8952 29.9259L16.756 28.8677L13.1475 25.2698Z" fill="#D87C30"/>
<path fill-rule="evenodd" clip-rule="evenodd" d="M13.1475 25.3755L16.756 28.7617V32.148L13.1475 25.3755Z" fill="#EA8D3A"/>
<path fill-rule="evenodd" clip-rule="evenodd" d="M16.7559 28.8677L21.0011 29.9259L22.381 34.4762L21.4257 35.0052L16.7559 32.2539V28.8677Z" fill="#F89D35"/>
<path fill-rule="evenodd" clip-rule="evenodd" d="M16.7563 32.2539L15.9072 38.8148L21.5323 34.8995L16.7563 32.2539Z" fill="#EB8F35"/>
<path fill-rule="evenodd" clip-rule="evenodd" d="M21.8504 25.4814L22.3811 34.4763L20.7891 29.873L21.8504 25.4814Z" fill="#EA8E3A"/>
<path fill-rule="evenodd" clip-rule="evenodd" d="M11.874 32.3598L16.7561 32.2539L15.907 38.8148L11.874 32.3598Z" fill="#D87C30"/>
<path fill-rule="evenodd" clip-rule="evenodd" d="M6.88569 41.6718L15.9068 38.8146L11.8738 32.3596L4.55078 32.8886L6.88569 41.6718Z" fill="#EB8F35"/>
<path fill-rule="evenodd" clip-rule="evenodd" d="M21.2135 17.2273L16.6499 21.0368L13.1475 25.2696L21.8503 25.5872L21.2135 17.2273Z" fill="#E8821E"/>
<path fill-rule="evenodd" clip-rule="evenodd" d="M15.9072 38.8147L21.5323 34.8994L21.1078 38.2857V40.1904L17.287 39.4496L15.9072 38.8147Z" fill="#DFCEC3"/>
<path fill-rule="evenodd" clip-rule="evenodd" d="M32.8877 38.8147L27.3688 34.8994L27.7934 38.2857V40.1904L31.6141 39.4496L32.8877 38.8147Z" fill="#DFCEC3"/>
<path fill-rule="evenodd" clip-rule="evenodd" d="M19.5151 27.386L20.6826 29.8199L16.5434 28.7617L19.5151 27.386Z" fill="#393939"/>
<path fill-rule="evenodd" clip-rule="evenodd" d="M6.7793 6.32788L21.2133 17.2273L18.7723 11.3013L6.7793 6.32788Z" fill="#E88F35"/>
<path fill-rule="evenodd" clip-rule="evenodd" d="M6.77952 6.32788L4.86914 12.148L5.93046 18.4972L5.18754 18.9205L6.24886 19.8729L5.3998 20.6136L6.56725 21.6718L5.82433 22.3067L7.52244 24.4231L15.4824 21.9893C19.3739 18.8852 21.2842 17.2979 21.2135 17.2274C21.1427 17.1568 16.3314 13.5236 6.77952 6.32788Z" fill="#8E5A30"/>
<path fill-rule="evenodd" clip-rule="evenodd" d="M41.2724 24.3174L44.2441 32.8888L36.8149 32.4655H32.039V28.7619L32.2513 21.1428L33.3126 21.9894L41.2724 24.3174Z" fill="#F89D35"/>
<path fill-rule="evenodd" clip-rule="evenodd" d="M35.6475 25.2698L26.9446 25.4814L27.8997 29.9259L32.039 28.8677L35.6475 25.2698Z" fill="#D87C30"/>
<path fill-rule="evenodd" clip-rule="evenodd" d="M35.6475 25.3755L32.039 28.7617V32.148L35.6475 25.3755Z" fill="#EA8D3A"/>
<path fill-rule="evenodd" clip-rule="evenodd" d="M32.0391 28.8677L27.7938 29.9259L26.414 34.4762L27.3693 35.0052L32.0391 32.2539V28.8677Z" fill="#F89D35"/>
<path fill-rule="evenodd" clip-rule="evenodd" d="M32.0386 32.2539L32.8877 38.8148L27.3688 35.0052L32.0386 32.2539Z" fill="#EB8F35"/>
<path fill-rule="evenodd" clip-rule="evenodd" d="M26.9445 25.4814L26.4138 34.4763L28.0059 29.873L26.9445 25.4814Z" fill="#EA8E3A"/>
<path fill-rule="evenodd" clip-rule="evenodd" d="M36.9209 32.3598L32.0388 32.2539L32.8879 38.8148L36.9209 32.3598Z" fill="#D87C30"/>
<path fill-rule="evenodd" clip-rule="evenodd" d="M41.9092 41.6718L32.8881 38.8146L36.9211 32.3596L44.2441 32.8886L41.9092 41.6718Z" fill="#EB8F35"/>
<path fill-rule="evenodd" clip-rule="evenodd" d="M27.5814 17.2273L32.145 21.0368L35.6475 25.2696L26.9446 25.5872L27.5814 17.2273Z" fill="#E8821E"/>
<path fill-rule="evenodd" clip-rule="evenodd" d="M29.2799 27.386L28.1123 29.8199L32.2516 28.7617L29.2799 27.386Z" fill="#393939"/>
<path fill-rule="evenodd" clip-rule="evenodd" d="M42.0156 6.32788L27.5817 17.2273L30.0226 11.3013L42.0156 6.32788Z" fill="#E88F35"/>
<path fill-rule="evenodd" clip-rule="evenodd" d="M42.0154 6.32788L43.9258 12.148L42.8645 18.4972L43.6074 18.9205L42.5461 19.8729L43.3951 20.6136L42.2277 21.6718L42.9706 22.3067L41.2725 24.4231L33.3126 21.9893C29.4211 18.8852 27.5107 17.2979 27.5814 17.2274C27.6522 17.1568 32.4635 13.5236 42.0154 6.32788Z" fill="#8E5A30"/>
</g>
<defs>
<clipPath id="clip0_3493_8371">
<rect width="40" height="35.5556" fill="white" transform="translate(4.44434 6.22217)"/>
</clipPath>
</defs>
</svg>
